# xmcd
#
# Track frame offsets: 
#        150
#        18594
#        35413
#        55858
#        73330
#        90974
#        111099
#        130019
#        147374
#        165811
#
# Disc length: 2413 seconds
#
# Revision: 0
# Processed by: cddbd v1.5.2PL0 Copyright (c) Steve Scherf et al.
# Submitted via: ExactAudioCopy v1.0b3
#
DISCID=7d096b0a
DTITLE=Phuong Dung - Dan Khong Con Tieng Hat
DYEAR=1992
DGENRE=
TTITLE0=Dan khong con tieng hat
TTITLE1=Chang la ai
TTITLE2=Tha La xom dao
TTITLE3=No
TTITLE4=De tra loi mot cau hoi
TTITLE5=Tinh em bien rong song dai
TTITLE6=Em hau phuong anh tien tuyen
TTITLE7=Tango di vang
TTITLE8=Thuyen vien xu
TTITLE9=Tra lai thoi gian
EXTD=
EXTT0=
EXTT1=
EXTT2=
EXTT3=
EXTT4=
EXTT5=
EXTT6=
EXTT7=
EXTT8=
EXTT9=
PLAYORDER=
